<?xml version="1.0" encoding="iso-8859-1"?>
<!-- Generator: Adobe Illustrator 28.0.0, SVG Export Plug-In . SVG Version: 6.00 Build 0)  -->
<svg version="1.1" id="Capa_1" xmlns="http://www.w3.org/2000/svg" xmlns:xlink="http://www.w3.org/1999/xlink" x="0px" y="0px"
	 viewBox="0 0 102.95 26.89" style="enable-background:new 0 0 102.95 26.89;" xml:space="preserve">
<g>
	<path style="fill-rule:evenodd;clip-rule:evenodd;fill:#0039A6;" d="M7.25,5C6.01,5,5,6.02,5,7.27v14.62h14.63
		c1.25,0,2.26-1.02,2.26-2.27l0-14.62H7.25L7.25,5z M17.94,17.19L17.94,17.19l-9,1.63V9.73l9-1.63V17.19L17.94,17.19z"/>
	<path style="fill-rule:evenodd;clip-rule:evenodd;fill:#05BE50;" d="M94.13,14.45l-0.05-0.06l0.05-0.06c0.95-1.19,3-3.52,3.77-4.21
		h-1.2c-0.75,0-1.27,0.08-1.82,0.59c-1.08,1.02-1.98,2.22-2.89,3.41l-0.18,0.23l0.01-6.81h-2.19l0,11.81l2.18,0v-4.79l0.18,0.23
		c1.04,1.38,2.09,2.77,3.3,4.01c0.38,0.38,0.98,0.62,1.48,0.62c0.6,0,0.94-0.15,1.18-0.44C97.35,18.26,94.86,15.35,94.13,14.45
		L94.13,14.45z M50.8,9.9c-2.66,0-4.54,1.92-4.55,5.03c0,2.83,2.26,4.59,4.57,4.59c1.37,0,2.23-0.21,2.72-0.62v-1.57
		c-0.71,0.35-1.54,0.46-2.28,0.46c-1.42,0-2.57-0.77-2.75-2.02l-0.02-0.11h1.66c1.56,0,2.66-0.14,3.36-0.49
		c0.69-0.35,0.99-0.87,1-1.71C54.51,11.26,52.73,9.91,50.8,9.9L50.8,9.9z M51.88,13.98L51.88,13.98c-0.43,0.15-1.12,0.21-2.24,0.21
		h-1.16l0.01-0.1l0.02-0.32c0.05-1.12,0.88-2.1,2.09-2.1c0.56,0,1.03,0.12,1.37,0.37c0.34,0.25,0.53,0.64,0.53,1.14
		C52.49,13.54,52.32,13.83,51.88,13.98L51.88,13.98z M55.65,13.49L55.65,13.49l0,5.87h2.18v-5.45c0-0.73,0.15-1.26,0.44-1.61
		c0.3-0.35,0.75-0.5,1.29-0.5c0.22,0,0.42,0.02,0.59,0.05v-1.73c-0.27-0.14-0.63-0.23-1.1-0.23C56.61,9.9,55.66,11.63,55.65,13.49
		L55.65,13.49z M26.98,7.53L26.98,7.53v11.83h2.18V7.53H26.98L26.98,7.53z M35.03,9.9L35.03,9.9c-2.91,0-4.17,1.99-4.18,3.94v5.52
		h2.16V14c0-0.69,0.18-1.24,0.5-1.63c0.32-0.38,0.78-0.59,1.32-0.59c0.63,0,1.14,0.18,1.49,0.58c0.35,0.4,0.53,1,0.53,1.81l0,5.18
		h2.16v-5.39C39,11.34,37.22,9.91,35.03,9.9L35.03,9.9z M42.83,7.53L42.83,7.53h-2.15l0.01,8.53c0.01,2.17,1.1,3.44,3.46,3.45
		c1,0,1.6-0.33,1.85-0.85v-1.34c-0.39,0.17-0.92,0.25-1.57,0.25c-0.49,0-0.9-0.12-1.18-0.42c-0.28-0.3-0.42-0.75-0.42-1.37v-3.99
		h1.89c0.92,0,1.31-0.59,1.31-1.02V9.9h-3.2V7.53L42.83,7.53z M83.96,9.9L83.96,9.9c-2.91,0-4.17,1.99-4.18,3.94l0.01,5.52h2.15V14
		c0-0.69,0.18-1.24,0.5-1.63c0.32-0.38,0.79-0.59,1.32-0.59c0.62,0,1.14,0.18,1.49,0.58c0.35,0.4,0.53,1,0.53,1.8l0.01,5.18h2.16
		v-5.39C87.94,11.34,86.15,9.91,83.96,9.9L83.96,9.9z M65.91,9.9L65.91,9.9c-1.22,0-1.98,0.72-2.44,1.39l-0.17,0.25l0.01-4.02h-2.15
		v7.33c0,3.11,1.87,4.66,4.31,4.66c2.77,0,4.52-2.18,4.53-4.97C69.99,11.81,68.22,9.91,65.91,9.9L65.91,9.9z M65.71,17.68
		L65.71,17.68L65.71,17.68c-0.71,0-1.35-0.21-1.77-0.73c-0.42-0.52-0.62-1.33-0.62-2.43c0-1.5,0.91-2.73,2.15-2.74
		c0.72,0,1.32,0.2,1.71,0.71c0.4,0.5,0.6,1.29,0.6,2.45C67.78,16.5,66.93,17.68,65.71,17.68L65.71,17.68z M74.44,9.91L74.44,9.91
		c-1.32,0-2.18,0.35-2.79,0.83v1.52c0.61-0.29,1.38-0.53,2.43-0.53c0.71,0,1.33,0.1,1.69,0.39c0.37,0.29,0.53,0.76,0.53,1.44v0.22
		h-0.92c-3.47,0.01-4.61,1.24-4.62,2.86c0,1.67,1.49,2.89,3.7,2.9h0.48c2.07,0,3.49-1.34,3.49-3.28v-2.17
		C78.43,10.77,76.52,9.92,74.44,9.91L74.44,9.91z M76.32,16.26L76.32,16.26c0,0.5-0.13,0.89-0.4,1.16c-0.27,0.26-0.68,0.39-1.2,0.39
		h0c-0.53,0-0.96-0.11-1.27-0.33c-0.3-0.21-0.47-0.54-0.47-0.94c0-0.4,0.14-0.75,0.53-0.97c0.38-0.21,0.97-0.32,1.88-0.32h0.94
		V16.26L76.32,16.26z"/>
</g>
</svg>
