<svg xmlns="http://www.w3.org/2000/svg" viewBox="0 0 64 64"><defs><style>.cls-1{isolation:isolate;}.cls-2{fill:#f7130d;}.cls-2,.cls-3,.cls-4,.cls-5,.cls-6{stroke:#000;stroke-miterlimit:10;}.cls-2,.cls-3,.cls-4{stroke-width:0;}.cls-3,.cls-5{fill:none;}.cls-4,.cls-6{fill:#f2f2f2;}.cls-5,.cls-6{stroke-width:2px;}.cls-7{mix-blend-mode:multiply;}.cls-8{opacity:0.25;}</style></defs><title>Icon Color</title><g class="cls-1"><g id="Layer_1" data-name="Layer 1"><g id="Vector"><path class="cls-2" d="M26.74,45.5l-4.33,7.32a3.56,3.56,0,1,1-6.12-3.62l4.32-7.3Z"/><polygon class="cls-3" points="31.07 38.19 26.74 45.5 20.61 41.9 24.94 34.59 31.07 38.19"/><polygon class="cls-2" points="32 36.63 31.81 36.95 31.07 38.19 24.94 34.59 27.67 29.97 27.86 29.65 28.05 29.97 28.77 31.18 32 36.63"/><polygon class="cls-3" points="39.51 23.93 36.13 29.65 34.91 27.58 32.19 22.99 32 22.67 33.39 20.33 39.51 23.93"/><path class="cls-2" d="M44,17.63a9.9,9.9,0,0,0-2.32,2.59l-2.2,3.71-6.12-3.6,2.11-3.57a15.91,15.91,0,0,1,3.28-4Z"/><path class="cls-3" d="M48.81,16.41a5.47,5.47,0,0,0-2.55.08A6.36,6.36,0,0,0,44,17.63l-5.25-4.86a11.1,11.1,0,0,1,1.33-1.07,13,13,0,0,1,4.21-2,11.82,11.82,0,0,1,3.12-.45Z"/><path class="cls-2" d="M57.92,13.22l-4.85,5.21h0A8.76,8.76,0,0,0,52,17.69a9.68,9.68,0,0,0-3.18-1.28L47.44,9.2a15.22,15.22,0,0,1,8.18,2.38A16.15,16.15,0,0,1,57.92,13.22Z"/><path class="cls-3" d="M62.32,22.56l-7.14-.4c0-.21-.06-.42-.11-.63a5.4,5.4,0,0,0-2-3.1l4.85-5.21a13,13,0,0,1,2.82,3.45h0A12.11,12.11,0,0,1,62,20,12.6,12.6,0,0,1,62.32,22.56Z"/><path class="cls-2" d="M62.32,22.56a18.66,18.66,0,0,1-1.4,7.37l-6.75-2.3a11.44,11.44,0,0,0,1-5.47Z"/><path class="cls-3" d="M60.92,29.93a23.34,23.34,0,0,1-2.25,4.37,3.56,3.56,0,0,1-5.89-4,15.57,15.57,0,0,0,1.39-2.67Z"/><path class="cls-2" d="M37.26,45.5l4.33,7.32a3.56,3.56,0,1,0,6.12-3.62l-4.32-7.3Z"/><polygon class="cls-2" points="39.06 34.59 32.93 38.19 32.19 36.95 32 36.63 28.77 31.18 32 29.29 34.91 27.58 36.13 29.65 36.33 29.97 39.06 34.59"/><polygon class="cls-3" points="43.38 41.9 37.25 45.5 32.93 38.19 39.06 34.59 43.38 41.9"/><polygon class="cls-4" points="34.91 27.58 32 29.29 28.77 31.18 28.05 29.97 27.86 29.65 24.48 23.93 30.61 20.33 32 22.67 32.19 22.99 34.91 27.58"/><path class="cls-2" d="M30.61,20.33l-6.12,3.6-2.2-3.71A9.9,9.9,0,0,0,20,17.63l5.25-4.86a15.91,15.91,0,0,1,3.28,4Z"/><path class="cls-3" d="M15.19,16.41a5.47,5.47,0,0,1,2.55.08A6.36,6.36,0,0,1,20,17.63l5.25-4.86a11.1,11.1,0,0,0-1.33-1.07,13,13,0,0,0-4.21-2,11.82,11.82,0,0,0-3.12-.45Z"/><path class="cls-2" d="M6.08,13.22l4.85,5.21h0A8.76,8.76,0,0,1,12,17.69a9.68,9.68,0,0,1,3.18-1.28L16.56,9.2a15.22,15.22,0,0,0-8.18,2.38A16.15,16.15,0,0,0,6.08,13.22Z"/><path class="cls-3" d="M1.68,22.56l7.14-.4c0-.21.06-.42.11-.63a5.4,5.4,0,0,1,2-3.1L6.08,13.22a13,13,0,0,0-2.82,3.45h0A12.11,12.11,0,0,0,2,20,12.6,12.6,0,0,0,1.68,22.56Z"/><path class="cls-2" d="M1.68,22.56a18.66,18.66,0,0,0,1.4,7.37l6.75-2.3a11.44,11.44,0,0,1-1-5.47Z"/><path class="cls-3" d="M3.08,29.93A23.34,23.34,0,0,0,5.33,34.3a3.56,3.56,0,0,0,5.89-4,15.57,15.57,0,0,1-1.39-2.67Z"/></g><g id="Line"><path class="cls-5" d="M26.74,45.5l-4.33,7.32a3.56,3.56,0,1,1-6.12-3.62l4.32-7.3Z"/><polygon class="cls-6" points="31.07 38.19 26.74 45.5 20.61 41.9 24.94 34.59 31.07 38.19"/><polygon class="cls-5" points="32 36.63 31.81 36.95 31.07 38.19 24.94 34.59 27.67 29.97 27.86 29.65 28.05 29.97 28.77 31.18 32 36.63"/><polygon class="cls-6" points="39.51 23.93 36.13 29.65 34.91 27.58 32.19 22.99 32 22.67 33.39 20.33 39.51 23.93"/><path class="cls-5" d="M44,17.63a9.9,9.9,0,0,0-2.32,2.59l-2.2,3.71-6.12-3.6,2.11-3.57a15.91,15.91,0,0,1,3.28-4Z"/><path class="cls-6" d="M45.32,9.41a10.73,10.73,0,0,1,2.12-.21l1.37,7.21a5.47,5.47,0,0,0-2.55.08A6.36,6.36,0,0,0,44,17.63l-5.25-4.86a11.1,11.1,0,0,1,1.33-1.07,13.15,13.15,0,0,1,3.68-1.89"/><path class="cls-5" d="M53.07,10.3a19,19,0,0,1,2.55,1.28,16.15,16.15,0,0,1,2.3,1.64l-4.85,5.21h0A8.76,8.76,0,0,0,52,17.69a9.68,9.68,0,0,0-3.18-1.28L47.44,9.2a13.33,13.33,0,0,1,3.92.51"/><path class="cls-6" d="M62.32,22.56l-7.14-.4c0-.21-.06-.42-.11-.63a5.4,5.4,0,0,0-2-3.1l4.85-5.21a13,13,0,0,1,2.82,3.45h0A12.11,12.11,0,0,1,62,20,12.6,12.6,0,0,1,62.32,22.56Z"/><path class="cls-5" d="M62.32,22.56a18.66,18.66,0,0,1-1.4,7.37l-6.75-2.3a11.44,11.44,0,0,0,1-5.47Z"/><path class="cls-6" d="M60.92,29.93a23.34,23.34,0,0,1-2.25,4.37,3.56,3.56,0,0,1-5.89-4,15.57,15.57,0,0,0,1.39-2.67Z"/><path class="cls-5" d="M37.26,45.5l4.33,7.32a3.56,3.56,0,1,0,6.12-3.62l-4.32-7.3Z"/><polygon class="cls-6" points="43.38 41.9 37.25 45.5 32.93 38.19 39.06 34.59 43.38 41.9"/><polygon class="cls-5" points="39.06 34.59 32.93 38.19 32.19 36.95 32 36.63 28.77 31.18 32 29.29 34.91 27.58 36.13 29.65 36.33 29.97 39.06 34.59"/><polygon class="cls-5" points="34.91 27.58 32 29.29 28.77 31.18 28.05 29.97 27.86 29.65 24.48 23.93 30.61 20.33 32 22.67 32.19 22.99 34.91 27.58"/><path class="cls-5" d="M28.87,17.39l1.74,2.94-6.12,3.6-2.2-3.71A9.9,9.9,0,0,0,20,17.63l5.25-4.86a16.14,16.14,0,0,1,2.52,2.8"/><path class="cls-6" d="M19.08,9.5a10.66,10.66,0,0,0-2.52-.3l-1.37,7.21a5.47,5.47,0,0,1,2.55.08A6.36,6.36,0,0,1,20,17.63l5.25-4.86a11.1,11.1,0,0,0-1.33-1.07,13.09,13.09,0,0,0-3.57-1.86"/><path class="cls-5" d="M6.08,13.22l4.85,5.21h0A8.76,8.76,0,0,1,12,17.69a9.68,9.68,0,0,1,3.18-1.28L16.56,9.2a15.22,15.22,0,0,0-8.18,2.38A16.15,16.15,0,0,0,6.08,13.22Z"/><path class="cls-6" d="M1.68,22.56l7.14-.4c0-.21.06-.42.11-.63a5.4,5.4,0,0,1,2-3.1L6.08,13.22a13,13,0,0,0-2.82,3.45h0A12.11,12.11,0,0,0,2,20,12.6,12.6,0,0,0,1.68,22.56Z"/><path class="cls-5" d="M1.68,22.56a18.66,18.66,0,0,0,1.4,7.37l6.75-2.3a11.44,11.44,0,0,1-1-5.47Z"/><path class="cls-6" d="M3.08,29.93A23.34,23.34,0,0,0,5.33,34.3a3.56,3.56,0,0,0,5.89-4,15.57,15.57,0,0,1-1.39-2.67Z"/><polygon class="cls-3" points="34.91 27.58 32 29.29 28.77 31.18 28.05 29.97 27.86 29.65 24.48 23.93 30.61 20.33 32 22.67 32.19 22.99 34.91 27.58"/><polygon class="cls-5" points="31.07 38.19 26.74 45.5 20.61 41.9 24.94 34.59 31.07 38.19"/><polygon class="cls-5" points="39.51 23.93 36.13 29.65 34.91 27.58 32.19 22.99 32 22.67 33.39 20.33 39.51 23.93"/><path class="cls-5" d="M45.32,9.41a10.73,10.73,0,0,1,2.12-.21l1.37,7.21a5.47,5.47,0,0,0-2.55.08A6.36,6.36,0,0,0,44,17.63l-5.25-4.86a11.1,11.1,0,0,1,1.33-1.07,13.15,13.15,0,0,1,3.68-1.89"/><path class="cls-5" d="M62.32,22.56l-7.14-.4c0-.21-.06-.42-.11-.63a5.4,5.4,0,0,0-2-3.1l4.85-5.21a13,13,0,0,1,2.82,3.45h0A12.11,12.11,0,0,1,62,20,12.6,12.6,0,0,1,62.32,22.56Z"/><path class="cls-5" d="M60.92,29.93a23.34,23.34,0,0,1-2.25,4.37,3.56,3.56,0,0,1-5.89-4,15.57,15.57,0,0,0,1.39-2.67Z"/><polygon class="cls-5" points="43.38 41.9 37.25 45.5 32.93 38.19 39.06 34.59 43.38 41.9"/><path class="cls-5" d="M19.08,9.5a10.66,10.66,0,0,0-2.52-.3l-1.37,7.21a5.47,5.47,0,0,1,2.55.08A6.36,6.36,0,0,1,20,17.63l5.25-4.86a11.1,11.1,0,0,0-1.33-1.07,13.09,13.09,0,0,0-3.57-1.86"/><path class="cls-5" d="M1.68,22.56l7.14-.4c0-.21.06-.42.11-.63a5.4,5.4,0,0,1,2-3.1L6.08,13.22a13,13,0,0,0-2.82,3.45h0A12.11,12.11,0,0,0,2,20,12.6,12.6,0,0,0,1.68,22.56Z"/><path class="cls-5" d="M3.08,29.93A23.34,23.34,0,0,0,5.33,34.3a3.56,3.56,0,0,0,5.89-4,15.57,15.57,0,0,1-1.39-2.67Z"/></g><g id="Shadow" class="cls-7"><g class="cls-8"><path d="M39.27,44.32l-2,1.18,4.33,7.32a3.18,3.18,0,0,0,.26.35l.85.8a3.54,3.54,0,0,0,2.35.57C43.66,52.07,41.62,48.46,39.27,44.32Z"/><path d="M8.93,21.53a5.4,5.4,0,0,1,2-3.1h0A8.76,8.76,0,0,1,12,17.69a9.68,9.68,0,0,1,3.18-1.28,5.47,5.47,0,0,1,2.55.08A6.36,6.36,0,0,1,20,17.63h0a9.9,9.9,0,0,1,2.32,2.59l2.2,3.71,3.37,5.72.2.32.71,1.21L32,36.63l.19.32.74,1.24,4.32,7.31,2-1.19C36.43,39.29,33.14,33.49,30,28c-2.91-5.09-4.76-10.68-9.81-12.58A11.06,11.06,0,0,0,13,15a9.7,9.7,0,0,0-4.64,3C5.89,21,5.79,25.72,8,30a3.43,3.43,0,0,1-.58,2.12A3.67,3.67,0,0,1,4.8,33.45c.25.43.44.72.53.85a3.56,3.56,0,0,0,5.89-4,15.57,15.57,0,0,1-1.39-2.67,11.44,11.44,0,0,1-1-5.47C8.85,22,8.88,21.74,8.93,21.53Z"/></g><g class="cls-8"><path d="M58.67,34.3c.06-.08.16-.24.29-.45a2.24,2.24,0,0,1-1.18-1c-.92-1.4,0-3.22.59-4.81a10.43,10.43,0,0,0-7.83-13.8,12.73,12.73,0,0,0-10.46,3.12c-2.67,2.28-4.48,5.37-6.22,8.43l1,1.77,1.22,2.07,3.38-5.72,2.2-3.71A9.9,9.9,0,0,1,44,17.63a6.36,6.36,0,0,1,2.23-1.14,5.47,5.47,0,0,1,2.55-.08A9.68,9.68,0,0,1,52,17.69a8.76,8.76,0,0,1,1.07.74h0a5.4,5.4,0,0,1,2,3.1c0,.21.08.42.11.63a11.44,11.44,0,0,1-1,5.47,15.57,15.57,0,0,1-1.39,2.67,3.56,3.56,0,0,0,5.89,4Z"/><path d="M31.07,38.19,31.81,37l.19-.32-2.19-3.7L21,48.51c-1.07,1.88-2.14,3.77-3.05,5.74a3.55,3.55,0,0,0,4.5-1.43l4.33-7.32Z"/></g></g></g></g></svg>