<svg xmlns="http://www.w3.org/2000/svg" viewBox="0 0 64 64"><defs><style>.cls-1{isolation:isolate;}.cls-2{fill:#008f57;}.cls-3{fill:#f7130d;}.cls-4{fill:#ffd45d;}.cls-5,.cls-7,.cls-8,.cls-9{fill:none;}.cls-6{fill:#fff;}.cls-7,.cls-8,.cls-9{stroke:#000;stroke-width:2px;}.cls-7,.cls-9{stroke-linejoin:round;}.cls-8{stroke-miterlimit:10;}.cls-9{stroke-linecap:round;}.cls-10{mix-blend-mode:multiply;}.cls-11{opacity:0.25;}</style></defs><title>Icon Color</title><g class="cls-1"><g id="Layer_1" data-name="Layer 1"><g id="Vector"><path class="cls-2" d="M54.13,23.24C56,13.77,52.6,10.63,48.85,9.79Q49,10.8,49,12c.95,16.27-7.7,8.75-10.42,6l-.89-1.22a3.48,3.48,0,0,1-2.28.86h-1v0a14.34,14.34,0,1,1-7.77,1.13h0l.54-1.4a3.26,3.26,0,0,1-.53-.26S14.4,31.25,15.52,12c.05-.87.12-1.68.21-2.41-9.66,1.26-6,13.27-6,13.27-16.07,10.75.16,19.4.16,19.4C5.75,59.85,22.79,54.53,22.79,54.53c10.6,15.42,18.8,0,18.8,0,15.27,5.14,14.3-12.29,14.3-12.29C69.07,27.7,54.13,23.24,54.13,23.24ZM10.93,36.53a3.74,3.74,0,1,1,3.74-3.73A3.73,3.73,0,0,1,10.93,36.53Zm5.89,11.18A2.68,2.68,0,1,1,19.5,45,2.68,2.68,0,0,1,16.82,47.71Zm14.75,8.46a3.31,3.31,0,1,1,3.3-3.31A3.31,3.31,0,0,1,31.57,56.17Zm15.29-7.58a2.68,2.68,0,1,1,2.67-2.67A2.68,2.68,0,0,1,46.86,48.59ZM52.74,37a3.08,3.08,0,1,1,3.07-3.08A3.08,3.08,0,0,1,52.74,37Z"/><path class="cls-2" d="M39.47,7.6c-.61.9-1,1.56-1,1.56l-.11.6a3.47,3.47,0,0,0-2.93-1.61H28.51a3.46,3.46,0,0,0-2.44,1s-.38-.66-1-1.57C27.8,4.55,33.12.79,39.47,7.6Z"/><path class="cls-3" d="M14.67,32.8a3.74,3.74,0,1,1-3.74-3.74A3.73,3.73,0,0,1,14.67,32.8Z"/><path class="cls-3" d="M34.87,52.86a3.31,3.31,0,1,1-3.3-3.3A3.31,3.31,0,0,1,34.87,52.86Z"/><path class="cls-3" d="M55.81,33.87a3.08,3.08,0,1,1-3.07-3.07A3.07,3.07,0,0,1,55.81,33.87Z"/><path class="cls-4" d="M19.5,45a2.68,2.68,0,1,1-2.68-2.67A2.68,2.68,0,0,1,19.5,45Z"/><path class="cls-4" d="M49.53,45.92a2.68,2.68,0,1,1-2.67-2.68A2.67,2.67,0,0,1,49.53,45.92Z"/><path class="cls-3" d="M38.91,11.61v2.57a3.22,3.22,0,0,1-.16,1s0,0,0,0A6,6,0,0,1,38,16.51l-.06.07,0,0s0,0,0,.05,0,0,0,0l0,.05h0a3.48,3.48,0,0,1-2.28.86h-1.3c-.51-.05-1-.08-1.55-.08s-1,0-1.55.08H28.51a3.37,3.37,0,0,1-1.24-.23,3.26,3.26,0,0,1-.53-.26,3.47,3.47,0,0,1-1.69-3V11.61a3.47,3.47,0,0,1,3.46-3.46h6.93a3.47,3.47,0,0,1,3.47,3.46Z"/><path class="cls-2" d="M34.14,17.64H31c.51-.05,1-.08,1.55-.08S33.63,17.59,34.14,17.64Z"/><path class="cls-2" d="M38.74,15.25a2.75,2.75,0,0,1-.15.36,3.07,3.07,0,0,1-.17.31l-.21.31a3.33,3.33,0,0,1-.25.28A6,6,0,0,0,38.74,15.25Z"/><path class="cls-3" d="M26.74,17.15S14.4,31.25,15.52,12c.05-.87.12-1.68.21-2.41,1.38-12.17,7-5.37,9.34-2,.62.91,1,1.57,1,1.57a3.46,3.46,0,0,0-1,2.45v2.57A3.47,3.47,0,0,0,26.74,17.15Z"/><path class="cls-3" d="M31.17,17.64,27.63,32.8l-2.58-4.17L21.7,31.71l5-12.9h0A14.47,14.47,0,0,1,31,17.64Z"/><path class="cls-3" d="M38.61,18l-.89-1.22h0l0-.05s0,0,0,0,0,0,0-.05l0,0a1.47,1.47,0,0,0,.31-.35l.21-.31a1.34,1.34,0,0,0,.17-.31,2.75,2.75,0,0,0,.15-.36s0,0,0,0a1.88,1.88,0,0,0,.16-1V11.61a3.45,3.45,0,0,0-.54-1.85l.11-.6s.38-.66,1-1.56c2.32-3.41,8-10.29,9.38,2.19Q49,10.8,49,12C50,28.25,41.33,20.73,38.61,18Z"/><path class="cls-2" d="M38.74,15.25a2.75,2.75,0,0,1-.15.36,3.07,3.07,0,0,1-.17.31l-.21.31a1.47,1.47,0,0,1-.31.35l.06-.07A6,6,0,0,0,38.74,15.25Z"/><path class="cls-3" d="M43.94,31.71,40.6,28.63,38,32.8,34.49,17.68A14.31,14.31,0,0,1,39,19.09Z"/><path class="cls-5" d="M19.06,18.08a14.87,14.87,0,0,1-.47-3"/><path class="cls-5" d="M18.54,12.79c0-.57,0-1.17.07-1.81,0-.46.06-.9.1-1.33"/><ellipse class="cls-6" cx="11.78" cy="30.99" rx="0.52" ry="0.73" transform="translate(-19.15 19.06) rotate(-48.1)"/><ellipse class="cls-6" cx="17.34" cy="44.23" rx="0.43" ry="0.6" transform="translate(-27.16 27.6) rotate(-48.1)"/><ellipse class="cls-6" cx="12.75" cy="32.22" rx="0.33" ry="0.47" transform="translate(-14.4 10.69) rotate(-30)"/><ellipse class="cls-6" cx="32.1" cy="51.5" rx="0.52" ry="0.73" transform="translate(-27.67 41) rotate(-48.1)"/><ellipse class="cls-6" cx="33.06" cy="52.74" rx="0.33" ry="0.47" transform="matrix(0.87, -0.5, 0.5, 0.87, -21.94, 23.6)"/><ellipse class="cls-6" cx="53.22" cy="32.53" rx="0.52" ry="0.73" transform="translate(-6.53 50.41) rotate(-48.1)"/><ellipse class="cls-6" cx="54.18" cy="33.76" rx="0.33" ry="0.47" transform="translate(-9.62 31.61) rotate(-30)"/><ellipse class="cls-6" cx="47.47" cy="45.33" rx="0.43" ry="0.6" transform="translate(-17.97 50.39) rotate(-48.1)"/></g><g id="Line"><path class="cls-7" d="M46.93,31.9A14.34,14.34,0,1,1,31,17.64c.51-.05,1-.08,1.55-.08s1,0,1.55.08l.35,0A14.37,14.37,0,0,1,46.93,31.9Z"/><path class="cls-8" d="M2.68,32.22c.15-2.78,2-6,7.09-9.38,0,0-3.7-12,6-13.27-.09.73-.16,1.54-.21,2.41-1.12,19.27,11.22,5.17,11.22,5.17a3.47,3.47,0,0,1-1.69-3V11.61a3.46,3.46,0,0,1,1-2.45s-.38-.66-1-1.57c2.73-3,8-6.8,14.4,0-.61.9-1,1.56-1,1.56l-.11.6a3.45,3.45,0,0,1,.54,1.85v2.57a3.48,3.48,0,0,1-3.47,3.46h-1v0A14.31,14.31,0,0,1,39,19.09"/><path class="cls-8" d="M4,36.79A8.82,8.82,0,0,1,2.82,34"/><path class="cls-8" d="M49,12q-.08-1.19-.18-2.19c3.75.84,7.19,4,5.28,13.45,0,0,14.94,4.46,1.76,19,0,0,1,17.43-14.3,12.29,0,0-8.2,15.42-18.8,0,0,0-17,5.32-12.86-12.29a19,19,0,0,1-4.81-3.88"/><circle class="cls-8" cx="10.94" cy="32.8" r="3.74"/><circle class="cls-8" cx="31.57" cy="52.87" r="3.3"/><circle class="cls-8" cx="52.74" cy="33.87" r="3.08"/><circle class="cls-8" cx="16.83" cy="45.03" r="2.68"/><circle class="cls-8" cx="46.86" cy="45.92" r="2.68"/><path class="cls-8" d="M38.91,11.61v2.57a3.48,3.48,0,0,1-3.47,3.46H28.51a3.37,3.37,0,0,1-1.24-.23,3.26,3.26,0,0,1-.53-.26,3.47,3.47,0,0,1-1.69-3V11.61a3.47,3.47,0,0,1,3.46-3.46h6.93a3.47,3.47,0,0,1,3.47,3.46Z"/><path class="cls-8" d="M26.74,17.15S14.4,31.25,15.52,12c.05-.87.12-1.68.21-2.41,1.38-12.17,7-5.37,9.34-2,.62.91,1,1.57,1,1.57a3.46,3.46,0,0,0-1,2.45v2.57A3.47,3.47,0,0,0,26.74,17.15Z"/><polyline class="cls-9" points="31.17 17.64 27.64 32.8 25.05 28.63 21.71 31.71 27.27 17.41"/><path class="cls-9" d="M38.91,14.18V11.61a3.45,3.45,0,0,0-.54-1.85l.11-.6s.38-.66,1-1.56c2.32-3.41,8-10.29,9.38,2.19Q49,10.8,49,12c.95,16.27-7.7,8.75-10.42,6l-.89-1.22S39.13,15.3,38.91,14.18Z"/><polyline class="cls-9" points="39.03 19.09 43.94 31.71 40.6 28.63 38.01 32.8 34.49 17.68"/></g><g id="Shadow" class="cls-10"><path class="cls-11" d="M54.13,23.24C56,13.77,52.6,10.63,48.85,9.79,47.5-2.69,41.79,4.19,39.47,7.6a12.05,12.05,0,0,0-4.94-3.44c-.91,2.3-.64,3.52-.19,4.2s1,.8,1.66,1.64a5.32,5.32,0,0,1,1,3h0a5.7,5.7,0,0,1-4,4h5c-1,3.41-.6,5.61,0,7s1.86,3.16,2,6c0,.42,0,.77,0,1l.6-2.37,3.34,3.08L39,19.09a14.33,14.33,0,0,1-2.62,26.62c0,.12-.1.29-.19.5C34.91,49.61,33.56,53.1,31,55a9.76,9.76,0,0,1-6.57,1.68c9.79,11.69,17.16-2.15,17.16-2.15,15.27,5.14,14.3-12.29,14.3-12.29,4.71-3,6.72-8.39,5.13-12.8S54.73,23.43,54.13,23.24Zm-15.38-8a3.22,3.22,0,0,0,.16-1A1.88,1.88,0,0,1,38.75,15.21Z"/></g></g></g></svg>