<svg xmlns="http://www.w3.org/2000/svg" viewBox="0 0 64 64"><defs><style>.cls-1{isolation:isolate;}.cls-2{fill:#af5e27;}.cls-3{fill:#dfbe9f;}.cls-4,.cls-5,.cls-7{fill:none;stroke-width:2px;}.cls-4,.cls-5,.cls-6,.cls-7{stroke:#000;}.cls-4,.cls-6{stroke-miterlimit:10;}.cls-5,.cls-7{stroke-linejoin:round;}.cls-6{stroke-width:0;}.cls-7{stroke-linecap:round;}.cls-8,.cls-9{mix-blend-mode:multiply;}.cls-9{opacity:0.25;}</style></defs><title>Icon Color</title><g class="cls-1"><g id="Layer_1" data-name="Layer 1"><g id="Vector"><path class="cls-2" d="M31.82,4.06a9.71,9.71,0,1,0,9.7,9.71A9.71,9.71,0,0,0,31.82,4.06Zm-4.68,7.3a1.34,1.34,0,1,1,1.34,1.34A1.34,1.34,0,0,1,27.14,11.36Zm9,5.69a5.54,5.54,0,0,1-3.95,1.82h-.1a6.19,6.19,0,0,1-4-1.85,1,1,0,1,1,1.47-1.36,4.14,4.14,0,0,0,2.6,1.21h0a3.67,3.67,0,0,0,2.54-1.24,1,1,0,0,1,1.41,0A1,1,0,0,1,36.12,17.05Zm-.71-4.35a1.34,1.34,0,1,1,1.34-1.34A1.34,1.34,0,0,1,35.41,12.7Z"/><path class="cls-3" d="M10.31,26.44,9.67,26a4.72,4.72,0,0,1-1.31-6.52l.79-1.2A4.72,4.72,0,0,1,15.7,17l.24.15C16.28,22,11.82,25.41,10.31,26.44Z"/><path class="cls-3" d="M56.34,23a4.66,4.66,0,0,1-2,3l-.67.44c-1.49-1-6-4.46-5.65-9.28l.31-.19a4.72,4.72,0,0,1,3.53-.69,4.66,4.66,0,0,1,3,2l.8,1.2A4.67,4.67,0,0,1,56.34,23Z"/><path class="cls-3" d="M44.07,59.21l-1.35.47A4.69,4.69,0,0,1,37,57.37c3-4,8.17-3.84,10.1-3.62A4.7,4.7,0,0,1,44.07,59.21Z"/><path class="cls-3" d="M27.06,57.25a4.68,4.68,0,0,1-5.77,2.43l-1.36-.47a4.7,4.7,0,0,1-3-5.44C18.68,53.54,24,53.25,27.06,57.25Z"/><path class="cls-2" d="M42.19,34.68A3.31,3.31,0,0,1,43.79,33l8.09-5.39c-2-1.45-5.53-4.7-5.86-9.27l-5.75,3.48a11.68,11.68,0,0,1-17-.08L17.93,18.4c-.34,4.54-3.86,7.77-5.83,9.23L20.22,33a3.35,3.35,0,0,1,1.6,1.65c.75,1.62.51,3.92-.69,6.83L17.58,51.69c2.45-.19,7,0,10.28,3.43L31.06,46A1,1,0,0,1,33,46l3.23,9.24c3.21-3.43,7.74-3.71,10.24-3.54L42.85,41.46C41.67,38.6,41.44,36.3,42.19,34.68Zm-9.72,4.59a1.93,1.93,0,1,1,1.92-1.93A1.93,1.93,0,0,1,32.47,39.27Zm0-6.91a1.93,1.93,0,1,1,1.92-1.93A1.93,1.93,0,0,1,32.47,32.36Z"/></g><g id="Line"><circle class="cls-4" cx="31.81" cy="13.76" r="10.71"/><path class="cls-5" d="M18,47.44l-1.9,5.44a5.71,5.71,0,0,0,3.5,7.27l1.35.48a5.73,5.73,0,0,0,7.27-3.51L32,46.31l3.78,10.81a5.73,5.73,0,0,0,7.27,3.51l1.35-.48a5.71,5.71,0,0,0,3.5-7.27L43.8,41.13c-2.59-6.24.46-7.21.46-7.21l10.63-7.08a5.72,5.72,0,0,0,1.59-7.91l-.8-1.19a5.72,5.72,0,0,0-7.91-1.59L39.67,21"/><line class="cls-5" x1="19.2" y1="44" x2="18.5" y2="46"/><path class="cls-5" d="M23.88,21l-7.65-4.8a5.72,5.72,0,0,0-7.91,1.59l-.8,1.19a5.72,5.72,0,0,0,1.59,7.91l10.63,7.08s3.05,1,.46,7.21L19.55,43"/><circle class="cls-6" cx="28.48" cy="11.36" r="1.34"/><circle class="cls-6" cx="35.41" cy="11.36" r="1.34"/><path class="cls-7" d="M28.79,16.34s3.18,3.44,6.62,0"/><circle class="cls-6" cx="32.46" cy="30.43" r="1.93"/><circle class="cls-6" cx="32.46" cy="37.34" r="1.93"/><path class="cls-4" d="M10.3,27.63s7.47-4.3,6.6-11"/><path class="cls-4" d="M53.65,27.63s-7.46-4.3-6.6-11"/><path class="cls-4" d="M16.1,52.88s8.09-1.74,12.12,4.24"/><path class="cls-4" d="M48,52.88S40,51.14,35.92,57.12"/></g><g id="Shadow" class="cls-8"><g class="cls-9"><path d="M46,18.37l-5.75,3.48a11.67,11.67,0,0,1-7.35,3.56,17.93,17.93,0,0,0-.65,3.11l.2,0a1.93,1.93,0,0,1,.05,3.85c1,3.85,4.29,7,4.93,11,.54,3.35-.85,6.64-2,9.93l.69,2c3.21-3.43,7.74-3.71,10.24-3.54L42.85,41.46c-1.18-2.86-1.41-5.16-.66-6.78A3.31,3.31,0,0,1,43.79,33l8.09-5.39C49.91,26.19,46.35,22.94,46,18.37Z"/><path d="M37,57.37a4.69,4.69,0,0,0,5.73,2.31l1.35-.47a4.7,4.7,0,0,0,3-5.46C45.16,53.53,40,53.37,37,57.37Z"/><path d="M41.52,13.77a9.7,9.7,0,0,0-9.26-9.69,19.3,19.3,0,0,1,2.62,6.05,1.32,1.32,0,0,1,.53-.11,1.34,1.34,0,1,1,0,2.68l-.08,0a19.56,19.56,0,0,1,.09,2.65,1,1,0,0,1,.7.3,1,1,0,0,1,0,1.42,9,9,0,0,1-1,.82c0,.24-.08.48-.13.72a48.81,48.81,0,0,1-1.43,4.71A9.72,9.72,0,0,0,41.52,13.77Z"/><path d="M54.85,18.29a4.66,4.66,0,0,0-3-2,4.72,4.72,0,0,0-3.53.69l-.31.19c-.33,4.82,4.16,8.28,5.65,9.28l.67-.44a4.72,4.72,0,0,0,1.31-6.52Z"/></g></g></g></g></svg>