<svg xmlns="http://www.w3.org/2000/svg" viewBox="0 0 64 64"><defs><style>.cls-1{isolation:isolate;}.cls-2{fill:#f2f2f2;}.cls-3{fill:#f7130d;}.cls-4,.cls-5{fill:none;stroke-width:2px;}.cls-4{stroke:#f2f2f2;stroke-linecap:round;stroke-linejoin:round;}.cls-5{stroke:#000;stroke-miterlimit:10;}.cls-6{mix-blend-mode:multiply;}.cls-7{opacity:0.25;}</style></defs><title>Icon Color</title><g class="cls-1"><g id="Layer_1" data-name="Layer 1"><g id="Vector"><rect class="cls-2" x="5" y="48.68" width="52.64" height="14.49" rx="5.39"/><circle class="cls-3" cx="53.27" cy="13.93" r="5.73"/><path class="cls-3" d="M51.8,47.77a8,8,0,0,0-1.38-.13H12.27A8.67,8.67,0,0,0,9.92,48c-.42-4.64-2-28.78,8.85-40.1C23,3.46,28.74,1.48,35.85,2A20.88,20.88,0,0,1,46.18,6.6a4,4,0,0,1,1.42,3.65,6.57,6.57,0,0,0-1.08,3,8.85,8.85,0,0,1-3.69.67,2.41,2.41,0,0,0-2.06.8c-.69.82-.83,2.12-.4,4.09a6.45,6.45,0,0,0,1.83,3.25C44.63,24.39,52.31,33,51.8,47.77Z"/><path class="cls-4" d="M47,37.15a36.59,36.59,0,0,1,.9,5.46"/><path class="cls-4" d="M43.26,27.83A34,34,0,0,1,46.09,34"/></g><g id="Line"><path class="cls-5" d="M20,63.17H10.39A5.4,5.4,0,0,1,5,57.78V54.07a5.41,5.41,0,0,1,5.39-5.39H52.26a5.4,5.4,0,0,1,5.38,5.39v3.71a5.4,5.4,0,0,1-5.38,5.39H25"/><path class="cls-5" d="M47.9,13.64A8.76,8.76,0,0,1,42.75,15c-1.27-.07-2,.85-1.35,3.58a5.29,5.29,0,0,0,1.52,2.71c2.9,2.75,10.86,11.83,9.89,27.58"/><path class="cls-5" d="M8.84,32C10.15,17.59,15.75-.62,35.84.92H36a22.14,22.14,0,0,1,10.9,4.82,5,5,0,0,1,1.72,5"/><path class="cls-5" d="M8.91,48.86A86,86,0,0,1,8.51,38"/><circle class="cls-5" cx="53.27" cy="13.93" r="5.73"/></g><g id="Shadow" class="cls-6"><g class="cls-7"><path d="M57.64,57.78V54.07a5.4,5.4,0,0,0-5.38-5.39H41.48a19.56,19.56,0,0,1-1,2.62A20,20,0,0,1,28.69,61.36c-2,.63-4.11.93-6.07,1.68l-.32.13h30A5.4,5.4,0,0,0,57.64,57.78Z"/><path d="M50.42,47.64a8,8,0,0,1,1.38.13c.51-14.81-7.17-23.38-9.6-25.68a6.45,6.45,0,0,1-1.83-3.25c-.43-2-.29-3.27.4-4.09a2.41,2.41,0,0,1,2.06-.8,8.85,8.85,0,0,0,3.69-.67,6.57,6.57,0,0,1,1.08-3A4,4,0,0,0,46.18,6.6,19.55,19.55,0,0,0,39.73,3a18,18,0,0,0-1.8,1.18A14.46,14.46,0,0,0,32,14.62c-.19,3.91,1.55,7.66,3.58,11S40,32.16,41.32,35.85a20,20,0,0,1,.49,11.79Z"/><circle cx="53.27" cy="13.93" r="5.73" transform="translate(5.75 41.75) rotate(-45)"/></g></g></g></g></svg>